<svg width="77" height="75" viewBox="0 0 77 75" fill="none" xmlns="http://www.w3.org/2000/svg">
<path d="M63.3648 75H13.6352C6.09532 75 0 68.9108 0 61.3785V13.6215C0 6.08923 6.09532 0 13.6352 0H63.3648C70.9047 0 77 6.08923 77 13.6215V61.3785C77 68.9108 70.9047 75 63.3648 75Z" fill="#FF26BE"/>
<path d="M62.1452 71.7938H14.8548C8.43921 71.7938 3.20937 66.5692 3.20937 60.16V14.84C3.20937 8.43076 8.43921 3.20615 14.8548 3.20615H62.1144C68.5639 3.20615 73.7599 8.43076 73.7599 14.84V60.1292C73.7907 66.5692 68.5608 71.7938 62.1452 71.7938Z" fill="#2E001F"/>
<path d="M30.4458 35.0954L39.4301 52.3384C39.5903 52.5938 39.4948 52.8523 39.2361 52.8523H33.6521C33.2979 52.8523 33.1377 52.7569 32.9775 52.4369C30.9232 48.2061 28.838 43.9754 26.6882 39.4246H26.6235C24.6985 43.72 22.5795 48.24 20.5282 52.4707C20.368 52.7261 20.2079 52.8246 19.9491 52.8246H14.6608C14.3405 52.8246 14.3066 52.5692 14.4698 52.3754L23.2601 35.6431L14.7593 18.72C14.5653 18.4646 14.7593 18.2708 14.9503 18.2708H20.4697C20.79 18.2708 20.9193 18.3354 21.0456 18.6246C23.0661 22.8554 25.1205 27.2154 27.0455 31.4769H27.1101C28.9705 27.2461 31.0248 22.8554 33.0145 18.6554C33.1747 18.4 33.2701 18.24 33.5935 18.24H38.7587C39.0144 18.24 39.1129 18.4338 38.9527 18.6892L30.4458 35.0954ZM41.004 40.32C41.004 32.8523 45.9782 27.0184 53.8692 27.0184C54.5437 27.0184 54.8948 27.0184 55.5386 27.0831V18.5908C55.5386 18.3969 55.6987 18.2708 55.8589 18.2708H60.9286C61.1842 18.2708 61.2489 18.3661 61.2489 18.5261V47.9507C61.2489 48.8154 61.2489 49.9046 61.409 51.0923C61.409 51.2861 61.3444 51.3477 61.1534 51.4461C58.4584 52.7292 55.634 53.3046 52.939 53.3046C45.9752 53.3323 41.001 49.04 41.004 40.32ZM55.5355 32.1169C55.0858 31.9231 54.4452 31.7969 53.6752 31.7969C49.6311 31.7969 46.8098 34.9046 46.8098 40.0677C46.8098 45.9661 49.6989 48.3384 53.324 48.3384C54.094 48.3384 54.9287 48.2431 55.5386 47.9846V32.1169H55.5355Z" fill="#FFD9F2"/>
</svg>
