<svg width="100" height="100" viewBox="0 0 100 100" fill="none" xmlns="http://www.w3.org/2000/svg">
<rect width="100" height="100" fill="#2C384A"/>
<path d="M57.5167 40.839L50.8678 46.9847L44.696 34.621L47.8843 27.5121C48.6902 26.0941 50.0081 26.0754 50.8139 27.5121L57.5167 40.839Z" fill="#FFA000"/>
<path d="M50.8705 46.982L26 69.9461L44.6987 34.621L50.8705 46.982Z" fill="#F57F17"/>
<path d="M64.807 31.4398C65.9982 30.3134 67.2245 30.6934 67.5344 32.2933L74 69.6357L52.555 82.4167C51.803 82.8341 49.8086 82.9973 49.8086 82.9973C49.8086 82.9973 47.9948 82.7779 47.2995 82.398L26 69.9461L64.807 31.4398Z" fill="#FFCA28"/>
<path d="M44.6987 34.6215L26 69.9465L34.3333 18.3141C34.6459 16.7142 35.5596 16.551 36.3843 17.969L44.6987 34.6215Z" fill="#FFA000"/>
</svg>
