<svg width="179" height="43" viewBox="0 0 179 43" fill="none" xmlns="http://www.w3.org/2000/svg">
<path d="M42.0625 42V2.54297H32.4922L21.2812 30.8711H21.0625L9.85156 2.54297H0.28125V42H7.63672V15.3672H7.85547L18.5742 42H23.7695L34.4883 15.3672H34.707V42H42.0625ZM58.6055 36.6953C55.8984 36.6953 54.0938 35.3281 54.0938 33.1406C54.0938 31.0625 55.7891 29.7227 58.7695 29.5039L64.9492 29.1211V31.2539C64.9492 34.4258 62.0781 36.6953 58.6055 36.6953ZM55.9805 42.4648C59.6445 42.4648 63.2812 40.6328 64.9219 37.5156H65.0859V42H72.7969V21.8477C72.7969 15.9414 67.9023 12.0586 60.3828 12.0586C52.6172 12.0586 47.7773 15.9688 47.4766 21.6562H54.7773C55.1602 19.4961 57.0469 18.0195 60.0273 18.0195C63.0352 18.0195 64.9492 19.6055 64.9492 22.3398V24.2812L57.5664 24.7188C50.2656 25.1562 46.1641 28.2461 46.1641 33.5781C46.1641 38.8555 50.4023 42.4648 55.9805 42.4648ZM78.1562 42H86.1406V25.2656C86.1406 21.4102 88.3555 18.7578 92.1289 18.7578C95.7656 18.7578 97.625 21.0547 97.625 24.8281V42H105.609V23.1328C105.609 16.3516 101.891 12.1406 95.3828 12.1406C90.9258 12.1406 87.7266 14.2188 86.168 17.9102H86.0039V2.54297H78.1562V42ZM122.043 36.6953C119.336 36.6953 117.531 35.3281 117.531 33.1406C117.531 31.0625 119.227 29.7227 122.207 29.5039L128.387 29.1211V31.2539C128.387 34.4258 125.516 36.6953 122.043 36.6953ZM119.418 42.4648C123.082 42.4648 126.719 40.6328 128.359 37.5156H128.523V42H136.234V21.8477C136.234 15.9414 131.34 12.0586 123.82 12.0586C116.055 12.0586 111.215 15.9688 110.914 21.6562H118.215C118.598 19.4961 120.484 18.0195 123.465 18.0195C126.473 18.0195 128.387 19.6055 128.387 22.3398V24.2812L121.004 24.7188C113.703 25.1562 109.602 28.2461 109.602 33.5781C109.602 38.8555 113.84 42.4648 119.418 42.4648ZM141.594 42H149.578V2.54297H141.594V42ZM155.102 42H163.086V12.6875H155.102V42ZM159.066 8.72266C161.391 8.72266 163.223 6.86328 163.223 4.62109C163.223 2.35156 161.391 0.519531 159.066 0.519531C156.742 0.519531 154.91 2.35156 154.91 4.62109C154.91 6.86328 156.742 8.72266 159.066 8.72266ZM173.613 42.3281C176.047 42.3281 178.016 40.3594 178.016 37.9258C178.016 35.4648 176.047 33.5234 173.613 33.5234C171.152 33.5234 169.211 35.4648 169.211 37.9258C169.211 40.3594 171.152 42.3281 173.613 42.3281Z" fill="black"/>
</svg>
