<svg width="87" height="87" viewBox="0 0 87 87" fill="none" xmlns="http://www.w3.org/2000/svg">
<rect width="87" height="87" fill="#ECEFF1"/>
<path d="M41.3847 18.6602C42.6626 17.9253 44.3271 17.922 45.6039 18.6602C52.0274 22.3064 58.4529 25.947 64.8752 29.5955C66.0832 30.279 66.8912 31.6295 66.8789 33.0278V54.9652C66.8879 56.4214 66 57.8042 64.7256 58.4723C58.3233 62.0984 51.9242 65.729 45.523 69.3552C44.2186 70.1044 42.5208 70.0467 41.2572 69.2361C39.3378 68.1183 37.415 67.006 35.4954 65.8893C35.1032 65.6543 34.661 65.4674 34.384 65.0853C34.6289 64.7537 35.0666 64.7124 35.4224 64.5677C36.2236 64.3117 36.9594 63.9009 37.6955 63.5022C37.8816 63.3743 38.1089 63.4233 38.2873 63.5378C39.9286 64.4832 41.5554 65.4561 43.2023 66.3925C43.5536 66.5962 43.9093 66.3257 44.2096 66.1576C50.4923 62.5904 56.7827 59.0367 63.0643 55.4684C63.297 55.3559 63.4257 55.1077 63.4068 54.8516C63.4112 47.6149 63.4079 40.377 63.409 33.1403C63.4356 32.8497 63.2682 32.5825 63.0066 32.4636C56.6265 28.854 50.2497 25.2389 43.8706 21.6284C43.7601 21.5521 43.6292 21.5111 43.495 21.5109C43.3609 21.5107 43.2299 21.5513 43.1191 21.6273C36.7401 25.2389 30.3644 28.8573 23.9853 32.4667C23.7247 32.5858 23.5498 32.8486 23.5808 33.1403C23.5819 40.377 23.5808 47.6149 23.5808 54.8527C23.5697 54.9777 23.597 55.1031 23.6591 55.212C23.7211 55.3209 23.8148 55.408 23.9277 55.4618C25.63 56.4315 27.3344 57.3945 29.0378 58.3609C29.9974 58.8798 31.1757 59.1881 32.2329 58.7905C33.1659 58.4544 33.8199 57.4979 33.8021 56.5027C33.811 49.3083 33.7977 42.1127 33.8088 34.9194C33.7854 34.6 34.087 34.3361 34.3961 34.3662C35.214 34.3607 36.0331 34.3551 36.851 34.3684C37.1924 34.3607 37.4273 34.7046 37.3851 35.0263C37.3818 42.2663 37.3939 49.5065 37.3796 56.7465C37.3818 58.676 36.5927 60.7756 34.8161 61.7197C32.6274 62.8587 29.9222 62.6171 27.7599 61.525C25.888 60.5864 24.1017 59.4787 22.263 58.4732C20.9853 57.8088 20.1019 56.4205 20.1109 54.9654V33.0278C20.0975 31.6006 20.9376 30.2255 22.1832 29.5519C28.5844 25.9228 34.9846 22.2909 41.3847 18.6602Z" fill="#8CC84B"/>
<path d="M46.9692 33.8563C49.761 33.6758 52.7498 33.7493 55.2621 35.131C57.2072 36.1898 58.2856 38.412 58.3199 40.5829C58.2656 40.8757 57.9609 41.0373 57.6826 41.0172C56.8726 41.0161 56.0624 41.0282 55.2524 41.0116C54.9088 41.0249 54.7091 40.7067 54.6659 40.4015C54.4332 39.3628 53.8693 38.334 52.8961 37.833C51.4022 37.0816 49.67 37.1194 48.0409 37.1351C46.8517 37.1985 45.5729 37.3019 44.5654 38.0045C43.7919 38.5367 43.5569 39.611 43.833 40.4762C44.0933 41.0974 44.8071 41.2978 45.3912 41.4826C48.7557 42.3666 52.321 42.2786 55.6213 43.442C56.9877 43.9163 58.3244 44.8383 58.792 46.2754C59.4038 48.2017 59.1357 50.504 57.7715 52.0504C56.6652 53.3229 55.054 54.0155 53.447 54.3917C51.3091 54.8706 49.0905 54.8827 46.9194 54.6701C44.8779 54.4363 42.7535 53.8975 41.1775 52.5001C39.8299 51.3246 39.1716 49.493 39.237 47.7252C39.2526 47.4266 39.5485 47.2185 39.8332 47.243C40.6489 47.2363 41.4646 47.2341 42.2803 47.2441C42.6061 47.2207 42.8477 47.5035 42.8644 47.812C43.0149 48.8017 43.3851 49.8404 44.2441 50.4271C45.902 51.5016 47.9822 51.4281 49.8805 51.4581C51.4532 51.388 53.2186 51.3668 54.502 50.3226C55.1792 49.727 55.3798 48.7305 55.1968 47.8732C54.9985 47.1495 54.2449 46.8122 53.5977 46.5917C50.2763 45.5362 46.6711 45.9192 43.3818 44.7256C42.0464 44.2515 40.7551 43.3551 40.2421 41.977C39.5263 40.0264 39.8543 37.6138 41.3614 36.1196C42.831 34.6333 44.9523 34.061 46.9692 33.8561V33.8563Z" fill="#8CC84B"/>
</svg>
