<svg width="100" height="100" viewBox="0 0 100 100" fill="none" xmlns="http://www.w3.org/2000/svg">
<rect width="100" height="100" fill="#ECEFF1"/>
<path d="M15.2091 49.9304C15.2091 55.2772 20.4127 60.2684 28.6162 63.0819C26.978 71.3565 28.3228 78.0262 32.8139 80.6249C37.4301 83.2962 44.3074 81.4471 50.8349 75.7219C57.1978 81.2159 63.6283 83.378 68.1155 80.7718C72.7275 78.093 74.13 70.9712 72.4466 62.438C80.9912 59.6036 85.7708 55.3476 85.7708 49.9304C85.7708 44.7078 80.5577 40.1896 72.4646 37.3942C74.277 28.5085 72.7414 22.0008 68.0642 19.2948C63.5551 16.6858 57.0497 18.9597 50.5934 24.5973C43.8764 18.6136 37.4354 16.7868 32.7632 19.5004C28.2582 22.1169 26.9727 28.9078 28.6162 37.3355C20.6895 40.1084 15.2091 44.7289 15.2091 49.9304Z" fill="white"/>
<path d="M70.7507 40.1702C70.0837 39.9406 69.4111 39.7279 68.7334 39.5324C68.8458 39.0742 68.9497 38.614 69.0451 38.1519C70.5721 30.7146 69.5737 24.7231 66.1642 22.7508C62.8953 20.8591 57.5489 22.8315 52.1492 27.546C51.6171 28.0117 51.0969 28.4907 50.5889 28.9827C50.2488 28.6555 49.9026 28.3347 49.5506 28.0205C43.8916 22.9789 38.2194 20.8547 34.8135 22.8328C31.5476 24.7297 30.5803 30.3626 31.955 37.4109C32.0918 38.1089 32.2462 38.8033 32.4181 39.4934C31.6155 39.7222 30.8404 39.9659 30.0988 40.2253C23.4645 42.546 19.2274 46.1834 19.2274 49.956C19.2274 53.8528 23.7756 57.7613 30.6862 60.1309C31.2465 60.3222 31.8115 60.4994 32.3807 60.6624C32.1958 61.4059 32.0316 62.1544 31.8884 62.9071C30.5778 69.833 31.6014 75.3323 34.8587 77.2175C38.223 79.164 43.8695 77.1633 49.3678 72.341C49.8024 71.9598 50.2387 71.5555 50.6755 71.1317C51.2256 71.6643 51.7905 72.1814 52.3694 72.6824C57.6953 77.2807 62.9552 79.1375 66.2097 77.2473C69.5709 75.295 70.6631 69.3873 69.2448 62.1995C69.1366 61.6505 69.0104 61.0898 68.869 60.5188C69.2656 60.4014 69.6547 60.2801 70.0344 60.1537C77.2184 57.7657 81.8922 53.9048 81.8922 49.956C81.8922 46.1697 77.5187 42.5078 70.7507 40.1702V40.1702Z" fill="#53C1DE"/>
<path d="M69.1924 57.6043C68.8499 57.7181 68.4982 57.828 68.1399 57.9346C67.3467 55.4155 66.2762 52.7367 64.9667 49.9694C66.2166 47.2675 67.2455 44.6231 68.0165 42.1202C68.6574 42.3066 69.2797 42.5028 69.8793 42.7101C75.6784 44.7127 79.2154 47.6743 79.2154 49.956C79.2154 52.3866 75.3952 55.5421 69.1927 57.6043H69.1924ZM66.6187 62.7212C67.2458 65.8995 67.3354 68.7731 66.9199 71.0195C66.5466 73.038 65.7962 74.3837 64.8682 74.9227C62.8933 76.0697 58.6699 74.5788 54.1155 70.6464C53.5933 70.1956 53.0672 69.7142 52.5397 69.205C54.3055 67.2672 56.0701 65.0144 57.7924 62.5128C60.8219 62.2432 63.684 61.8021 66.2796 61.2003C66.4071 61.7178 66.5208 62.2251 66.6187 62.7212V62.7212ZM40.5911 74.7246C38.6617 75.4083 37.125 75.4277 36.1962 74.8904C34.2194 73.7468 33.398 69.3308 34.5187 63.408C34.6519 62.708 34.8045 62.0119 34.9763 61.3205C37.543 61.8901 40.3842 62.2999 43.421 62.547C45.1546 64.9949 46.9703 67.2449 48.8002 69.2153C48.4113 69.5927 48.0132 69.9605 47.6062 70.3183C45.1749 72.4509 42.7385 73.9635 40.5914 74.7246H40.5911ZM31.552 57.5893C28.4964 56.5413 25.9729 55.1795 24.2432 53.6936C22.6891 52.358 21.9042 51.032 21.9042 49.956C21.9042 47.6668 25.3062 44.7464 30.9802 42.7616C31.6923 42.5135 32.4116 42.2865 33.137 42.0807C33.9213 44.6398 34.9499 47.3156 36.1912 50.0214C34.9338 52.7676 33.8905 55.4859 33.099 58.0751C32.5795 57.9259 32.0636 57.7639 31.552 57.5893V57.5893ZM34.5822 36.895C33.4043 30.8559 34.1864 26.3005 36.1546 25.1574C38.2513 23.9397 42.8869 25.6761 47.7729 30.0289C48.0852 30.3072 48.3989 30.5985 48.7131 30.8999C46.8927 32.8613 45.0936 35.0944 43.375 37.5281C40.4278 37.8021 37.6065 38.2423 35.0129 38.832C34.8531 38.19 34.7095 37.544 34.5822 36.8947V36.895ZM61.6129 43.5919C61.0003 42.5302 60.365 41.4818 59.7074 40.4476C61.7069 40.7008 63.6224 41.0375 65.4212 41.4496C64.8813 43.1862 64.2082 45.0021 63.4156 46.8637C62.8364 45.7612 62.2354 44.6704 61.6129 43.5919V43.5919ZM50.5898 32.8193C51.8245 34.1614 53.0611 35.6601 54.2775 37.286C51.81 37.169 49.3385 37.1684 46.871 37.2843C48.0885 35.6734 49.3357 34.177 50.5898 32.8193V32.8193ZM39.4959 43.6103C38.8812 44.6801 38.2914 45.7643 37.7271 46.8618C36.9475 45.0066 36.2805 43.1826 35.7359 41.4212C37.5238 41.0197 39.4305 40.6916 41.417 40.4426C40.752 41.4832 40.1115 42.5394 39.4959 43.6103V43.6103ZM41.4741 59.6612C39.4219 59.4314 37.4864 59.12 35.699 58.7296C36.2523 56.937 36.9339 55.0738 37.7302 53.1788C38.2969 54.2771 38.8892 55.3619 39.5068 56.4323C40.1369 57.5241 40.7929 58.6007 41.4741 59.6612V59.6612ZM50.6638 67.2825C49.395 65.9087 48.1296 64.3894 46.8935 62.7552C48.0932 62.8025 49.3165 62.8264 50.5598 62.8264C51.8372 62.8264 53.0999 62.7978 54.3426 62.7421C53.1224 64.4061 51.8902 65.9276 50.6638 67.2825ZM63.4411 53.0823C64.2786 54.9978 64.9847 56.851 65.5455 58.6133C63.7284 59.0293 61.7668 59.3643 59.6999 59.6131C60.3622 58.5595 61.0036 57.4928 61.6237 56.4136C62.2541 55.3168 62.86 54.2061 63.4411 53.0823V53.0823ZM59.3047 55.0718C58.3554 56.7264 57.3528 58.3495 56.2984 59.9386C54.4391 60.0719 52.5178 60.1406 50.5598 60.1406C48.6099 60.1406 46.713 60.0797 44.8862 59.9609C43.8044 58.3754 42.7828 56.7495 41.8236 55.0866C40.8688 53.4325 39.977 51.7426 39.1501 50.0206C39.9749 48.298 40.864 46.6072 41.8155 44.9518V44.9523C42.7668 43.2965 43.7803 41.6775 44.854 40.0989C46.7177 39.9575 48.6285 39.8835 50.5601 39.8835C52.5003 39.8835 54.4136 39.9581 56.2768 40.1006C57.3396 41.6768 58.3466 43.2901 59.2961 44.9376C60.2508 46.5894 61.1518 48.2719 61.9976 49.9824C61.1605 51.7104 60.2624 53.408 59.3049 55.0718H59.3047ZM64.8272 25.0775C66.9255 26.2919 67.7417 31.1884 66.4232 37.6099C66.3368 38.0282 66.2429 38.4449 66.1415 38.8598C63.5417 38.2579 60.7185 37.8099 57.7627 37.5317C56.0407 35.0716 54.2567 32.8346 52.4657 30.8985C52.935 30.4445 53.4155 30.0023 53.9067 29.5723C58.5331 25.5325 62.857 23.9375 64.8272 25.0775V25.0775Z" fill="white"/>
<path d="M50.5598 44.3416C53.6504 44.3416 56.1555 46.8554 56.1555 49.956C56.1555 53.057 53.6504 55.5708 50.5598 55.5708C47.4695 55.5708 44.9641 53.057 44.9641 49.956C44.9641 46.8554 47.4695 44.3416 50.5598 44.3416" fill="#53C1DE"/>
</svg>
